<svg width="20" height="20" viewBox="0 0 20 20" fill="none" xmlns="http://www.w3.org/2000/svg">
<path fill-rule="evenodd" clip-rule="evenodd" d="M9.49485 7.53775C10.2911 6.38478 10.133 4.82432 9.12152 3.85459C8.0959 2.86941 6.52731 2.71916 5.33333 3.49175C4.84315 3.8086 4.4585 4.26432 4.2285 4.80075C4.0018 5.33195 3.94238 5.91961 4.05816 6.48542C4.17444 7.05384 4.45898 7.57416 4.87483 7.97875C5.2986 8.38837 5.83252 8.66569 6.41133 8.77675C6.99414 8.8905 7.59741 8.83345 8.14852 8.61225C8.69312 8.39432 9.16142 8.02052 9.49485 7.53775Z" stroke="#4A5365" stroke-width="1.75" stroke-linecap="round" stroke-linejoin="round"/>
<path fill-rule="evenodd" clip-rule="evenodd" d="M10.5052 16.8711C9.70879 15.7181 9.867 14.1577 10.8785 13.1879C11.9041 12.2028 13.4727 12.0525 14.6667 12.8251C15.1569 13.142 15.5414 13.5977 15.7715 14.1341C15.9982 14.6653 16.0576 15.2529 15.9418 15.8188C15.8255 16.3872 15.541 16.9075 15.1252 17.3121C14.7014 17.7217 14.1674 17.999 13.5887 18.1101C13.0068 18.2228 12.405 18.1653 11.855 17.9444C11.3092 17.7273 10.8396 17.354 10.5052 16.8711Z" stroke="#4A5365" stroke-width="1.75" stroke-linecap="round" stroke-linejoin="round"/>
<path d="M18.1668 6.79224C18.6501 6.79224 19.0418 6.40048 19.0418 5.91724C19.0418 5.43398 18.6501 5.04224 18.1668 5.04224V6.79224ZM1.8335 5.04224C1.35025 5.04224 0.958496 5.43398 0.958496 5.91724C0.958496 6.40048 1.35025 6.79224 1.8335 6.79224V5.04224ZM1.8335 14.3756C1.35025 14.3756 0.958496 14.7673 0.958496 15.2506C0.958496 15.7338 1.35025 16.1256 1.8335 16.1256V14.3756ZM18.1668 16.1256C18.6501 16.1256 19.0418 15.7338 19.0418 15.2506C19.0418 14.7673 18.6501 14.3756 18.1668 14.3756V16.1256ZM10.5 6.79224L18.1668 6.79224V5.04224L10.5 5.04224V6.79224ZM3.5 5.04224L1.8335 5.04224V6.79224L3.5 6.79224V5.04224ZM9.5 14.3756L1.8335 14.3756V16.1256H9.5V14.3756ZM16.5 16.1256H18.1668V14.3756L16.5 14.3756V16.1256Z" fill="#4A5365"/>
</svg>
