<svg width="20" height="20" viewBox="0 0 20 20" fill="none" xmlns="http://www.w3.org/2000/svg">
<path d="M14.2461 10.4287C14.2461 10.0277 14.3822 9.69108 14.6543 9.41895C14.9264 9.13965 15.2952 9 15.7607 9C16.2334 9 16.6022 9.13965 16.8672 9.41895C17.1393 9.69108 17.2754 10.0277 17.2754 10.4287C17.2754 10.8298 17.1393 11.1663 16.8672 11.4385C16.6022 11.7106 16.2334 11.8467 15.7607 11.8467C15.2952 11.8467 14.9264 11.7106 14.6543 11.4385C14.3822 11.1663 14.2461 10.8298 14.2461 10.4287Z" fill="#4A5365"/>
<path d="M8.12305 10.4287C8.12305 10.0277 8.25911 9.69108 8.53125 9.41895C8.80339 9.13965 9.1722 9 9.6377 9C10.1104 9 10.4792 9.13965 10.7441 9.41895C11.0163 9.69108 11.1523 10.0277 11.1523 10.4287C11.1523 10.8298 11.0163 11.1663 10.7441 11.4385C10.4792 11.7106 10.1104 11.8467 9.6377 11.8467C9.1722 11.8467 8.80339 11.7106 8.53125 11.4385C8.25911 11.1663 8.12305 10.8298 8.12305 10.4287Z" fill="#4A5365"/>
<path d="M2 10.4287C2 10.0277 2.13607 9.69108 2.4082 9.41895C2.68034 9.13965 3.04915 9 3.51465 9C3.9873 9 4.35612 9.13965 4.62109 9.41895C4.89323 9.69108 5.0293 10.0277 5.0293 10.4287C5.0293 10.8298 4.89323 11.1663 4.62109 11.4385C4.35612 11.7106 3.9873 11.8467 3.51465 11.8467C3.04915 11.8467 2.68034 11.7106 2.4082 11.4385C2.13607 11.1663 2 10.8298 2 10.4287Z" fill="#4A5365"/>
</svg>
