<svg width="20" height="20" viewBox="0 0 20 20" fill="none" xmlns="http://www.w3.org/2000/svg">
<path d="M13.2124 10.7427C13.3726 10.9143 13.582 10.9999 13.7918 10.9999C14.0016 10.9999 14.211 10.9143 14.3712 10.7427L17.4198 7.54856L17.4206 7.54774L18 6.92707L17.421 6.30682L17.4198 6.30558L14.5076 3.25714C14.1879 2.91429 13.6692 2.91429 13.3488 3.25714C13.0284 3.6004 13.0284 4.15603 13.3488 4.49888L14.8621 6.04876H5.64438C3.08321 6.04876 1 8.28118 1 11.0244C1 13.768 3.08359 16 5.64438 16H16.8408C17.2938 16 17.6604 15.6069 17.6604 15.1217C17.6604 14.6368 17.2938 14.2438 16.8408 14.2438H5.64438C3.98727 14.2438 2.63906 12.7991 2.63906 11.0244C2.63906 9.24963 3.98727 7.80539 5.64438 7.80539H14.8625L13.2128 9.50138C12.892 9.84422 12.892 10.3999 13.2124 10.7427Z" fill="#4A5365"/>
</svg>
