<svg width="20" height="20" viewBox="0 0 20 20" fill="none" xmlns="http://www.w3.org/2000/svg">
<path fill-rule="evenodd" clip-rule="evenodd" d="M8.6 9.2C8.93137 9.2 9.2 8.93137 9.2 8.6V4.6C9.2 4.26863 9.46863 4 9.8 4H10.2C10.5314 4 10.8 4.26863 10.8 4.6V8.6C10.8 8.93137 11.0686 9.2 11.4 9.2H15.4C15.7314 9.2 16 9.46863 16 9.8V10.2C16 10.5314 15.7314 10.8 15.4 10.8H11.4C11.0686 10.8 10.8 11.0686 10.8 11.4V15.4C10.8 15.7314 10.5314 16 10.2 16H9.8C9.46863 16 9.2 15.7314 9.2 15.4V11.4C9.2 11.0686 8.93137 10.8 8.6 10.8H4.6C4.26863 10.8 4 10.5314 4 10.2V9.8C4 9.46863 4.26863 9.2 4.6 9.2H8.6Z" fill="#4469E0"/>
</svg>
