<svg width="14" height="15" viewBox="0 0 14 15" fill="none" xmlns="http://www.w3.org/2000/svg">
<path d="M6.38137 9.57446L6.38137 4.49996L7.72998 4.49996L7.72998 9.57446L6.38137 9.57446Z" fill="#CFA121"/>
<path d="M7.99985 11.1261C7.99985 11.4104 7.9099 11.6505 7.72998 11.8464C7.5434 12.0423 7.36021 12.1403 7.00038 12.1403C6.64722 12.1403 6.4763 12.0423 6.28972 11.8464C6.09647 11.6505 5.99985 11.4104 5.99985 11.1261C5.99985 10.8543 6.09647 10.6205 6.28972 10.4246C6.4763 10.2351 6.64721 10.1403 7.00038 10.1403C7.36021 10.1403 7.5434 10.2351 7.72998 10.4246C7.9099 10.6205 7.99985 10.8543 7.99985 11.1261Z" fill="#CFA121"/>
<path d="M6.10557 1.28886L0.723607 12.0528C0.391156 12.7177 0.874652 13.5 1.61803 13.5H12.382C13.1253 13.5 13.6088 12.7177 13.2764 12.0528L7.89443 1.28885C7.5259 0.551806 6.4741 0.551807 6.10557 1.28886Z" stroke="#CFA121" stroke-width="1.2"/>
</svg>
