<svg xmlns="http://www.w3.org/2000/svg" version="1.1" xmlns:xlink="http://www.w3.org/1999/xlink" width="223" height="223"><svg width="223" height="223" viewBox="0 0 223 223" fill="none" xmlns="http://www.w3.org/2000/svg">
<path d="M123.889 174.993C123.889 173.283 122.502 171.896 120.792 171.896H102.208C100.498 171.896 99.1111 173.283 99.1111 174.993V213.708C99.1111 215.419 97.7244 216.806 96.0138 216.806H77.4305C75.72 216.806 74.3333 215.419 74.3333 213.708V147.118H148.667V213.708C148.667 215.419 147.28 216.806 145.569 216.806H126.986C125.276 216.806 123.889 215.419 123.889 213.708V174.993ZM49.5555 147.118V168.799C49.5555 170.509 48.1688 171.896 46.4583 171.896H6.19439C4.48384 171.896 3.09717 170.509 3.09717 168.799V150.215C3.09717 148.505 4.48384 147.118 6.19439 147.118H49.5555ZM216.806 147.118C218.516 147.118 219.903 148.505 219.903 150.215V168.799C219.903 170.509 218.516 171.896 216.806 171.896H176.542C174.831 171.896 173.444 170.509 173.444 168.799V147.118H216.806ZM120.792 54.2014C122.502 54.2014 123.889 52.8147 123.889 51.1042V9.29168C123.889 7.58113 125.276 6.19446 126.986 6.19446H145.569C147.28 6.19446 148.667 7.58113 148.667 9.29168V78.9792H77.4305C75.72 78.9792 74.3333 80.3659 74.3333 82.0764V147.118H49.5555V82.0764C49.5555 80.3659 48.1688 78.9792 46.4583 78.9792H6.19439C4.48384 78.9792 3.09717 77.5925 3.09717 75.882V57.2986C3.09717 55.5881 4.48384 54.2014 6.19439 54.2014H120.792ZM173.444 78.9792V147.118H148.667V78.9792H173.444ZM216.806 54.2014C218.516 54.2014 219.903 55.5881 219.903 57.2986V75.882C219.903 77.5925 218.516 78.9792 216.806 78.9792H173.444V57.2986C173.444 55.5881 174.831 54.2014 176.542 54.2014H216.806ZM96.0138 6.19446C97.7244 6.19446 99.1111 7.58113 99.1111 9.29168V35.6181C99.1111 37.3286 97.7244 38.7153 96.0138 38.7153H77.4305C75.72 38.7153 74.3333 37.3286 74.3333 35.6181V9.29168C74.3333 7.58113 75.72 6.19446 77.4305 6.19446H96.0138Z" fill="#4469E0"></path>
</svg><style>@media (prefers-color-scheme: light) { :root { filter: none; } }
@media (prefers-color-scheme: dark) { :root { filter: none; } }
</style></svg>