<svg width="24" height="24" viewBox="0 0 24 24" fill="none" xmlns="http://www.w3.org/2000/svg">
<path d="M15.0001 14.25H13.5001V9.75H15.0001V14.25ZM15.0001 18V21.75C15.0001 21.9489 14.9211 22.1397 14.7805 22.2803C14.6398 22.421 14.449 22.5 14.2501 22.5H9.75012C9.55121 22.5 9.36044 22.421 9.21979 22.2803C9.07914 22.1397 9.00012 21.9489 9.00012 21.75V18H10.5001V21H13.5001V18H15.0001ZM9.00012 14.25V9.75H10.5001V14.25H9.00012ZM15.0001 6H13.5001V3H10.5001V6H9.00012V2.25C9.00012 2.05109 9.07914 1.86032 9.21979 1.71967C9.36044 1.57902 9.55121 1.5 9.75012 1.5H14.2501C14.449 1.5 14.6398 1.57902 14.7805 1.71967C14.9211 1.86032 15.0001 2.05109 15.0001 2.25V6Z" fill="white"/>
<path d="M20.7464 16.125L19.0799 17.75H6.25338V14.5H19.0784L20.7464 16.125ZM19.4159 13H5.50488C5.30597 13 5.1152 13.079 4.97455 13.2197C4.8339 13.3603 4.75488 13.5511 4.75488 13.75V18.5C4.75488 18.6989 4.8339 18.8897 4.97455 19.0303C5.1152 19.171 5.30597 19.25 5.50488 19.25H19.4174C19.5234 19.25 19.6282 19.2276 19.7249 19.1841C19.8216 19.1407 19.908 19.0773 19.9784 18.998L22.3124 16.623C22.4343 16.4857 22.5016 16.3086 22.5016 16.125C22.5016 15.9414 22.4343 15.7643 22.3124 15.627L19.9784 13.252C19.908 13.1727 19.8216 13.1093 19.7249 13.0659C19.6282 13.0224 19.5234 13 19.4174 13H19.4159Z" fill="white"/>
<path d="M4.50996 8.125L6.17646 6.5L19.003 6.5L19.003 9.75L6.17797 9.75L4.50996 8.125ZM5.84047 11.25L19.7515 11.25C19.9504 11.25 20.1411 11.171 20.2818 11.0303C20.4224 10.8897 20.5015 10.6989 20.5015 10.5L20.5015 5.75C20.5015 5.55109 20.4224 5.36032 20.2818 5.21967C20.1411 5.07902 19.9504 5 19.7515 5L5.83897 5C5.73296 4.99997 5.62815 5.02242 5.53145 5.06586C5.43475 5.10929 5.34835 5.17274 5.27797 5.252L2.94397 7.627C2.82208 7.76426 2.75476 7.94144 2.75476 8.125C2.75476 8.30856 2.82208 8.48575 2.94397 8.623L5.27797 10.998C5.34836 11.0773 5.43475 11.1407 5.53145 11.1841C5.62815 11.2276 5.73296 11.25 5.83897 11.25L5.84047 11.25Z" fill="white"/>
</svg>
