<svg width="24" height="24" viewBox="0 0 24 24" fill="none" xmlns="http://www.w3.org/2000/svg">
<path d="M8.5 9L8.3284 9.17157C6.9951 10.5049 6.3284 11.1716 6.3284 12C6.3284 12.8284 6.9951 13.4951 8.3284 14.8284L8.5 15" stroke="white" stroke-width="1.5" stroke-linecap="round"/>
<path d="M10.7062 7.17041L12.0003 12L13.2943 16.8297" stroke="white" stroke-width="1.5" stroke-linecap="round"/>
<path d="M15.4999 9L15.6715 9.17157C17.0048 10.5049 17.6715 11.1716 17.6715 12C17.6715 12.8284 17.0048 13.4951 15.6715 14.8284L15.4999 15" stroke="white" stroke-width="1.5" stroke-linecap="round"/>
<path d="M22 12C22 7.28595 22 4.92893 20.5355 3.46447C19.0711 2 16.7141 2 12 2C7.286 2 4.9289 2 3.4645 3.46447C2 4.92893 2 7.28595 2 12C2 16.714 2 19.0711 3.4645 20.5355C4.9289 22 7.286 22 12 22C16.7141 22 19.0711 22 20.5355 20.5355C22 19.0711 22 16.714 22 12Z" stroke="white" stroke-width="1.2"/>
</svg>
