<svg width="30" height="30" viewBox="0 0 30 30" fill="none" xmlns="http://www.w3.org/2000/svg">
  <path fill-rule="evenodd" clip-rule="evenodd" d="M18.2917 16.6154C17.3329 16.6154 16.496 17.1135 16.0145 17.8603L13.1139 16.2126C13.3013 15.8465 13.4167 15.4383 13.4167 15C13.4167 14.7292 13.3641 14.4728 13.2894 14.2262L16.307 12.5123C16.8015 13.0454 17.5046 13.3846 18.2917 13.3846C19.7878 13.3846 21 12.1795 21 10.6923C21 9.2051 19.7878 8 18.2917 8C16.7956 8 15.5833 9.2051 15.5833 10.6923C15.5833 10.9632 15.6359 11.2195 15.7106 11.4666L12.693 13.18C12.1985 12.6475 11.4954 12.3077 10.7083 12.3077C9.2122 12.3077 8 13.5128 8 15C8 16.4872 9.2122 17.6923 10.7083 17.6923C11.3258 17.6923 11.8886 17.4791 12.3442 17.1334L15.6131 19.0169C15.6023 19.1139 15.5833 19.2075 15.5833 19.3077C15.5833 20.7949 16.7956 22 18.2917 22C19.7878 22 21 20.7949 21 19.3077C21 17.8205 19.7878 16.6154 18.2917 16.6154Z" fill="currentColor"/>
</svg> 